<svg 
    viewBox="0 0 57 40" 
    xmlns="http://www.w3.org/2000/svg"
>
    <defs>
        <clipPath id="a">
            <path 
                d="M.5.04h102v39.14H.5z" 
                fill="#fff"
            />
        </clipPath>
    </defs>
    <g 
        clip-path="url(#a)" 
        fill="#9534D2" 
        class="layer"
    >
        <path 
            d="M16.81 19.54H13.7a2.39 2.39 0 0 0 0 4.79h3.98c.67 0 1.25.44 1.49 1.06a18.4 18.4 0 0 0 3.21 5.49c.7.82.12 2.09-.96 2.09h-3.21c-1.15 0-2.14.88-2.19 2.03a2.13 2.13 0 0 0 2.13 2.23h15.74q1.25.18 2.55.18c10.26 0 18.56-8.38 18.43-18.67C54.74 8.79 46.62.67 36.67.55a18.4 18.4 0 0 0-4.06.4c-3.13.66-6.32.97-9.52.97H7.83c-1.29 0-2.4.99-2.46 2.28a2.4 2.4 0 0 0 2.4 2.51h9.8c2.03 0 3.35 2.14 2.43 3.94q-.01.03-.03.07a2.72 2.72 0 0 1-2.43 1.49H4.99c-1.29 0-2.4.99-2.46 2.28A2.4 2.4 0 0 0 4.92 17H16.8a1.27 1.27 0 1 1 0 2.54zM31.28 7.93c.16-2.58 2.26-4.67 4.83-4.83a5.18 5.18 0 0 1 5.5 5.51c-.16 2.58-2.25 4.67-4.83 4.83a5.18 5.18 0 0 1-5.51-5.51zm-10.37 8.25a5.18 5.18 0 0 1 5.51-5.5c2.58.16 4.67 2.26 4.83 4.84a5.18 5.18 0 0 1-5.51 5.5c-2.58-.17-4.67-2.26-4.83-4.84m14.03 11.9c-.16 2.58-2.25 4.67-4.83 4.83a5.18 5.18 0 0 1-5.51-5.51c.17-2.58 2.26-4.67 4.84-4.83a5.18 5.18 0 0 1 5.5 5.51m1.8-7.4a1.72 1.72 0 0 1-.59-3.39 1.72 1.72 0 1 1 .59 3.39m11.55 7.4c-.16 2.58-2.25 4.67-4.83 4.83a5.18 5.18 0 0 1-5.51-5.5c.17-2.58 2.26-4.67 4.83-4.84a5.18 5.18 0 0 1 5.51 5.51m-1.48-7.05a5.18 5.18 0 0 1-5.18-5.18c0-2.86 2.52-5.38 5.55-5.17 2.56.18 4.63 2.25 4.8 4.81a5.18 5.18 0 0 1-5.17 5.54"
        />
    </g>
</svg>